<?xml version="1.0" encoding="UTF-8"?>
<svg id="Layer_1" data-name="Layer 1" xmlns="http://www.w3.org/2000/svg" viewBox="0 0 464.2 440.52">
  <defs>
    <style>
      .cls-1 {
        fill: #f5f0e8;
      }
    </style>
  </defs>
  <path class="cls-1" d="M185.21,137.63c-.03-.31-.66-3.51-1.26-3.48-.21,26.41-15.2,51.71-37.81,65.07-24.19,10.56-37.64,18.24-40.1,46.95,8.21.14,10.13,5.47,10.77,12.66-4.42.28-9.75,1.07-14.18.57-7.4-.64-9.37-1.86-10.37-9.57l7.78-43.51c1.29-2.51,3.65-2,5.58-3.28,25.64-15.22,20.82-40.17,25.75-65.1-11.61,17.24-16.07,40.24-34.24,52.81-11.71,8.43-33.03,14.73-44.92,4.16,53.14-3.93,46.66-55.05,84.22-77.56,13.72-7.7,26.84-15.26,42.44-18.98,36.21-8.26,80.41,3.12,110.52-23.72,10.18,15.7,25.16,27.03,44.01,29.73-16.09-6.93-31.43-17.95-40.37-33.24l23.92-31.31,3.27,7.17,1.79,1.69c-6.8-14.76-.09-27.69,6.23-41.57.69-1.43,3.14-7.41,4.77-7.12,3.63.64,8.18,18.9,8.64,22.74,4.08-4.45,5.23-13.11,8.32-17.95,5.6-8.24,5.14,20.96,4.76,23.35l-1.1.7c-1.08-.38-6.22-2.19-6.28-.41,5.53,1.89,12.63,4.2,17.3,7.71,4.71,3.54,4.73,8.1,9,11.9,4.97,4.42,23.66,12.17,25.56,15.63,1.63,2.97-3.61,8.73-5.85,10.75-23.52,18.72-42.36-18.1-51.12,28.36l2.47,1.27c-1.22,3.46-.45,5.45-4.25,7.06.67,21.11-2.92,40.4-16.38,57.06-5,13.22-10.88,58.35-4.1,71.49,2.86,5.27,8.24,2.52,11.89,4.58,3.33,1.88,5.86,7.63,5.34,11.43-4.48-1.13-9.28-.76-13.82-.08-5.63-16.4-11.08-7.48-16.49-17.4-4.63-9.03-3.05-14.54-2.62-23.98.6-13.13.42-31.82,6.72-43.29,2.27-4.13,5.8-7.5,7.22-12.09-15.33,11.95-15.99,21.82-17.73,40.82-.95,14.32-4.78,36.95,6.78,47.02,2.19.61,6.69.38,8.89,2.19s1.37,7.24,3.32,9.01c-3.4,2.6-15.62,1.3-19.76.77-10.18-2.35-8.15-19.07-15.67-26.12,1.75-19.65-1.68-41.11-5.78-60.12,3.91-12.86,5.86-10.18,5.13-26.89l-6.02,18.35c-.71,2.24-4.43,5.21-4.6,7.39-.12,1.47,3.36,7.07,2.38,8.44-9.04-2.26-16.9-.78-26.09-3.35-13.12-3.1-26.48-12.51-39.77-12.48-1.74,34.87-29.42,35.58-36.68,58.61-.69,5.67,3.28,12.83,6.94,17.01,5.33,6.1,5.42,3.72,12.18,4.91,4.77.85,6.99,6.95,6.8,11.25-6.46-.05-13.57.12-19.98-.6-5.1-.72-10.67-11.36-13.7-15.46-3.26-5.22-11.43-13.59-13.17-19.11-.65-9.17,16.09-14.39,14.2-31.27.44-1.02,7.42-8.11,8.86-10.19,10.68-22.95,20.37-27.2,45.32-20.22-9.39-7.27-23.89-9.33-34.56-3.83-1.92.47-.28-1.39-.28-1.55,0-4.95.47-11.06,0-15.82ZM328.35,44.9c7.18-5.67.18-13.23.13-19.3-.05-5.43,3.59-11.85,3.66-17.41-13.04,27.28-.6,21.5-3.79,36.71ZM356.4,47.88c1.67,1.35,4.97,1.3,6.07-.75-2.17-4.04-3.93-4.13-7.51-1.27.71.41.98,1.65,1.44,2.02Z"/>
  <g>
    <path class="cls-1" d="M7.21,377.03c-4.8-4.67-7.21-10.86-7.21-18.57v-41.94c0-7.7,2.4-13.87,7.21-18.5,4.8-4.63,11.14-6.95,19.02-6.95s14.35,2.29,19.15,6.88c4.8,4.59,7.21,10.69,7.21,18.31v1.17c0,.87-.43,1.3-1.3,1.3l-6.62.26c-.87,0-1.3-.39-1.3-1.17v-1.82c0-5.02-1.58-9.09-4.74-12.21-3.16-3.12-7.29-4.67-12.4-4.67s-9.22,1.54-12.34,4.61c-3.12,3.07-4.67,7.16-4.67,12.27v43.11c0,5.11,1.56,9.2,4.67,12.27,3.12,3.07,7.23,4.61,12.34,4.61s9.24-1.56,12.4-4.67c3.16-3.12,4.74-7.18,4.74-12.21v-1.82c0-.78.43-1.17,1.3-1.17l6.62.39c.86,0,1.3.43,1.3,1.3v.91c0,7.62-2.4,13.74-7.21,18.37-4.8,4.63-11.19,6.95-19.15,6.95s-14.22-2.34-19.02-7.01Z"/>
    <path class="cls-1" d="M87.65,381.83l-23.63-88.3-.13-.39c0-.69.43-1.04,1.3-1.04h7.01c.86,0,1.34.39,1.43,1.17l18.96,74.27c.09.17.17.26.26.26s.17-.08.26-.26l18.96-74.27c.17-.78.65-1.17,1.43-1.17h6.75c.43,0,.76.13.97.39.21.26.28.61.19,1.04l-23.63,88.3c-.17.78-.65,1.17-1.43,1.17h-7.27c-.78,0-1.26-.39-1.43-1.17Z"/>
    <path class="cls-1" d="M202.17,336.25c4.07,1.99,7.21,4.85,9.41,8.57,2.21,3.72,3.35,8.23,3.44,13.5,0,7.79-2.32,13.85-6.95,18.18-4.63,4.33-10.76,6.49-18.37,6.49h-25.58c-.87,0-1.3-.43-1.3-1.3v-88.3c0-.86.43-1.3,1.3-1.3h24.54c7.96,0,14.2,2.06,18.7,6.17,4.5,4.11,6.75,9.98,6.75,17.59,0,4.85-1.02,8.92-3.05,12.21-2.04,3.29-5,5.8-8.9,7.53-.43.17-.43.39,0,.65ZM172.05,300.67v31.29c0,.35.17.52.52.52h16.23c5.02,0,8.98-1.43,11.88-4.28,2.9-2.86,4.35-6.71,4.35-11.56,0-5.11-1.45-9.13-4.35-12.08-2.9-2.94-6.86-4.42-11.88-4.42h-16.23c-.35,0-.52.17-.52.52ZM201.39,370.14c2.94-3.12,4.41-7.36,4.41-12.72s-1.49-9.74-4.48-12.86c-2.99-3.12-7.03-4.67-12.14-4.67h-16.62c-.35,0-.52.17-.52.52v33.89c0,.35.17.52.52.52h16.88c5.02,0,9-1.56,11.95-4.67Z"/>
    <path class="cls-1" d="M237.49,378.91c-4.07-3.42-6.54-8.03-7.4-13.83-.52-4.33-.78-9.35-.78-15.06s.26-10.65.78-14.8c.78-5.71,3.22-10.3,7.34-13.76,4.11-3.46,9.33-5.19,15.65-5.19s11.53,1.73,15.65,5.19c4.11,3.46,6.56,8.05,7.34,13.76.52,3.46.78,8.4.78,14.8s-.26,11.6-.78,15.06c-.78,5.8-3.23,10.41-7.34,13.83-4.11,3.42-9.33,5.13-15.65,5.13s-11.52-1.71-15.58-5.13ZM262.49,372.54c2.55-2.29,4.09-5.34,4.61-9.15.34-3.2.52-7.62.52-13.24s-.18-10.13-.52-13.25c-.44-3.81-1.93-6.86-4.48-9.15-2.55-2.29-5.74-3.44-9.54-3.44s-6.97,1.15-9.48,3.44c-2.51,2.29-4.03,5.35-4.54,9.15-.35,3.12-.52,7.53-.52,13.25s.17,10.13.52,13.24c.43,3.81,1.93,6.86,4.48,9.15,2.55,2.29,5.73,3.44,9.54,3.44s6.86-1.15,9.41-3.44Z"/>
    <path class="cls-1" d="M299.82,378.91c-4.07-3.42-6.54-8.03-7.4-13.83-.52-4.33-.78-9.35-.78-15.06s.26-10.65.78-14.8c.78-5.71,3.22-10.3,7.34-13.76,4.11-3.46,9.33-5.19,15.65-5.19s11.53,1.73,15.65,5.19c4.11,3.46,6.56,8.05,7.34,13.76.52,3.46.78,8.4.78,14.8s-.26,11.6-.78,15.06c-.78,5.8-3.23,10.41-7.34,13.83-4.11,3.42-9.33,5.13-15.65,5.13s-11.51-1.71-15.58-5.13ZM324.81,372.54c2.55-2.29,4.09-5.34,4.61-9.15.34-3.2.52-7.62.52-13.24s-.17-10.13-.52-13.25c-.43-3.81-1.93-6.86-4.48-9.15-2.55-2.29-5.74-3.44-9.54-3.44s-6.97,1.15-9.48,3.44c-2.51,2.29-4.03,5.35-4.54,9.15-.35,3.12-.52,7.53-.52,13.25s.17,10.13.52,13.24c.43,3.81,1.93,6.86,4.48,9.15,2.55,2.29,5.73,3.44,9.54,3.44s6.86-1.15,9.41-3.44Z"/>
    <path class="cls-1" d="M355.65,381.7v-88.3c0-.86.43-1.3,1.3-1.3h6.62c.87,0,1.3.43,1.3,1.3v52.72c0,.17.08.3.26.39.17.09.3.04.39-.13l23.5-28.31c.43-.52.95-.78,1.56-.78h7.4c.52,0,.86.15,1.04.46.17.3.08.67-.26,1.1l-14.8,18.44c-.17.26-.22.48-.13.65l17.53,43.5.13.52c0,.69-.39,1.04-1.17,1.04h-6.88c-.69,0-1.17-.34-1.43-1.04l-14.15-37.14c-.09-.17-.22-.28-.39-.32-.17-.04-.3.02-.39.19l-11.95,14.41c-.17.35-.26.56-.26.65v21.94c0,.87-.43,1.3-1.3,1.3h-6.62c-.87,0-1.3-.43-1.3-1.3Z"/>
    <path class="cls-1" d="M416.81,378.84c-4.07-3.2-6.1-7.31-6.1-12.34v-1.17c0-.86.43-1.3,1.3-1.3h6.36c.86,0,1.3.43,1.3,1.3v.91c0,2.77,1.23,5.17,3.7,7.21,2.47,2.04,5.65,3.05,9.54,3.05s6.88-.99,9.22-2.99c2.34-1.99,3.51-4.5,3.51-7.53,0-2.16-.65-3.98-1.95-5.45-1.3-1.47-2.9-2.64-4.8-3.51-1.91-.86-4.54-1.86-7.92-2.99-4.07-1.38-7.45-2.77-10.13-4.16-2.68-1.38-4.96-3.31-6.82-5.78-1.86-2.47-2.79-5.6-2.79-9.41,0-5.54,1.95-9.93,5.84-13.18s9.04-4.87,15.45-4.87,11.84,1.69,15.78,5.06c3.94,3.38,5.91,7.71,5.91,12.99v.26c0,.87-.43,1.3-1.3,1.3h-5.97c-.87,0-1.3-.43-1.3-1.3v-.52c0-2.94-1.19-5.39-3.57-7.34-2.38-1.95-5.56-2.92-9.54-2.92-3.72,0-6.73.93-9.03,2.79-2.29,1.86-3.44,4.27-3.44,7.21s1.15,5.32,3.44,6.88c2.29,1.56,5.91,3.2,10.84,4.93,4.24,1.39,7.75,2.77,10.52,4.16,2.77,1.39,5.13,3.31,7.08,5.78,1.95,2.47,2.92,5.65,2.92,9.54,0,5.54-1.99,9.96-5.97,13.24-3.98,3.29-9.31,4.93-15.97,4.93s-12.03-1.6-16.1-4.8Z"/>
  </g>
  <g>
    <path class="cls-1" d="M124.15,417.6c1.31.57,2.32,1.46,3.03,2.64.71,1.19,1.08,2.63,1.11,4.33,0,2.43-.7,4.33-2.11,5.7-1.41,1.37-3.27,2.05-5.6,2.05h-7.79c-.27,0-.41-.14-.41-.41v-27.88c0-.27.14-.41.41-.41h7.5c2.41,0,4.3.65,5.68,1.95,1.38,1.3,2.07,3.12,2.07,5.47,0,1.53-.34,2.83-1,3.9-.67,1.07-1.63,1.87-2.89,2.42-.11.08-.11.16,0,.25ZM114.55,405.71v10.74c0,.11.05.16.16.16h5.62c1.72,0,3.08-.48,4.08-1.46,1-.97,1.5-2.3,1.5-4s-.5-3.12-1.5-4.12c-1-1-2.36-1.5-4.08-1.5h-5.62c-.11,0-.16.06-.16.16ZM124.6,428.75c1.01-1.07,1.52-2.51,1.52-4.35s-.51-3.29-1.54-4.37c-1.03-1.08-2.41-1.62-4.16-1.62h-5.7c-.11,0-.16.05-.16.16v11.6c0,.11.05.16.16.16h5.78c1.72,0,3.09-.53,4.1-1.6Z"/>
    <path class="cls-1" d="M132.31,440.11v-1.07c0-.27.14-.41.41-.41h.08c.93-.03,1.65-.2,2.17-.51.52-.31.96-.9,1.33-1.74.37-.85.79-2.16,1.25-3.94.03-.03.03-.11,0-.25l-6.15-20.09-.04-.12c0-.22.14-.33.41-.33h1.44c.22,0,.37.11.45.33l4.92,17.26c.03.05.06.08.1.08s.07-.03.1-.08l4.88-17.26c.05-.22.21-.33.45-.33h1.44c.14,0,.24.04.31.12.07.08.09.19.06.33l-6.81,22.31c-.55,1.78-1.07,3.09-1.56,3.94s-1.09,1.42-1.78,1.72c-.7.3-1.67.45-2.93.45h-.25c-.19,0-.29-.14-.29-.41Z"/>
    <path class="cls-1" d="M160.13,430.49c-1.46-1.43-2.19-3.33-2.19-5.68v-13.74c0-2.35.73-4.24,2.19-5.66,1.46-1.42,3.4-2.13,5.8-2.13s4.38.71,5.84,2.13c1.46,1.42,2.19,3.29,2.19,5.62v.37c0,.14-.04.25-.12.33-.08.08-.18.12-.29.12l-1.35.08c-.27,0-.41-.14-.41-.41v-.57c0-1.72-.54-3.11-1.62-4.16-1.08-1.05-2.5-1.58-4.24-1.58s-3.16.53-4.22,1.58c-1.07,1.05-1.6,2.44-1.6,4.16v13.98c0,1.75.53,3.15,1.6,4.2,1.07,1.05,2.47,1.58,4.22,1.58s3.2-.53,4.26-1.58c1.07-1.05,1.6-2.45,1.6-4.2v-.49c0-.27.14-.41.41-.41l1.35.08c.27,0,.41.14.41.41v.33c0,2.35-.73,4.24-2.19,5.66-1.46,1.42-3.41,2.13-5.84,2.13s-4.34-.72-5.8-2.15Z"/>
    <path class="cls-1" d="M188.91,429.84c.83-.59,1.42-1.37,1.74-2.36.08-.25.25-.34.49-.29l1.23.21c.14.03.23.09.27.18.04.1.05.2.02.31-.44,1.45-1.25,2.6-2.44,3.46-1.19.86-2.62,1.29-4.29,1.29-1.89,0-3.44-.53-4.65-1.58-1.22-1.05-1.95-2.44-2.19-4.16-.11-.66-.18-1.41-.2-2.28-.03-.86-.04-1.74-.04-2.64,0-2.24.05-3.81.16-4.72.22-1.75.95-3.18,2.19-4.29,1.24-1.11,2.79-1.66,4.65-1.66,2,0,3.62.57,4.88,1.72s1.97,2.65,2.13,4.51c.08.9.12,2.52.12,4.84,0,.27-.14.41-.41.41h-11.4c-.11,0-.16.05-.16.16,0,1.67.03,2.8.08,3.4.14,1.31.64,2.36,1.52,3.16.87.79,2,1.19,3.36,1.19,1.12,0,2.1-.29,2.93-.88ZM182.6,414.46c-.86.81-1.36,1.85-1.5,3.14-.05.6-.08,1.67-.08,3.2,0,.11.05.16.16.16h9.47c.11,0,.16-.05.16-.16,0-1.23-.04-2.3-.12-3.2-.14-1.29-.64-2.33-1.52-3.14-.88-.81-1.97-1.21-3.28-1.21s-2.44.4-3.3,1.21Z"/>
    <path class="cls-1" d="M207.67,411.94c.19.08.26.25.21.49l-.37,1.39c-.08.27-.26.36-.53.25-.44-.19-.89-.29-1.35-.29l-.45.04c-1.31.03-2.39.59-3.24,1.68-.85,1.09-1.27,2.45-1.27,4.06v12.34c0,.27-.14.41-.41.41h-1.35c-.27,0-.41-.14-.41-.41v-19.85c0-.27.14-.41.41-.41h1.35c.27,0,.41.14.41.41v2.75c0,.08.03.12.08.12s.1-.04.12-.12c.46-1.04,1.1-1.85,1.91-2.44.81-.59,1.74-.88,2.81-.88.85,0,1.54.15,2.09.45Z"/>
    <path class="cls-1" d="M219.28,413.41h-4.06c-.11,0-.16.05-.16.16v13.12c0,1.39.27,2.36.82,2.89s1.42.8,2.62.8h.7c.27,0,.41.14.41.41v1.11c0,.27-.14.41-.41.41h-1.07c-1.72,0-3.02-.36-3.9-1.09-.88-.72-1.31-2.06-1.31-4v-13.65c0-.11-.06-.16-.16-.16h-2.09c-.27,0-.41-.14-.41-.41v-.94c0-.27.14-.41.41-.41h2.09c.11,0,.16-.05.16-.16v-4.63c0-.27.14-.41.41-.41h1.31c.27,0,.41.14.41.41v4.63c0,.11.05.16.16.16h4.06c.27,0,.41.14.41.41v.94c0,.27-.14.41-.41.41Z"/>
    <path class="cls-1" d="M235.86,413.17c1.16,1.23,1.74,2.9,1.74,5v13.74c0,.27-.14.41-.41.41h-1.35c-.27,0-.41-.14-.41-.41v-1.68c0-.05-.02-.09-.06-.1s-.09,0-.14.06c-.6.82-1.39,1.43-2.38,1.84s-2.06.62-3.24.62c-1.7,0-3.13-.45-4.31-1.35-1.18-.9-1.76-2.38-1.76-4.43,0-2.16.68-3.79,2.05-4.9,1.37-1.11,3.24-1.66,5.62-1.66h4.06c.11,0,.16-.05.16-.16v-1.89c0-1.53-.38-2.75-1.15-3.65-.77-.9-1.89-1.35-3.36-1.35-1.18,0-2.16.29-2.95.88-.79.59-1.27,1.36-1.43,2.32-.03.25-.18.37-.45.37l-1.48-.08c-.14,0-.24-.04-.31-.12-.07-.08-.09-.18-.06-.29.19-1.5.91-2.71,2.15-3.63,1.24-.92,2.77-1.37,4.57-1.37,2.11,0,3.74.61,4.9,1.84ZM233.81,429.51c1.08-.81,1.62-1.95,1.62-3.42v-3.85c0-.11-.05-.16-.16-.16h-3.94c-1.7,0-3.05.4-4.08,1.21-1.02.81-1.54,1.96-1.54,3.46,0,1.34.4,2.34,1.19,2.99.79.66,1.82.98,3.08.98,1.48,0,2.75-.4,3.83-1.21Z"/>
    <path class="cls-1" d="M247.28,431.99l-5.95-19.89-.04-.12c0-.22.14-.33.41-.33h1.52c.22,0,.37.11.45.33l4.76,16.94c.03.05.07.08.12.08s.09-.03.12-.08l4.76-16.89c.11-.25.26-.37.45-.37l1.52.04c.14,0,.25.04.33.12s.1.19.04.33l-5.95,19.85c-.08.22-.23.33-.45.33h-1.6c-.25,0-.41-.11-.49-.33Z"/>
    <path class="cls-1" d="M269.32,429.84c.83-.59,1.41-1.37,1.74-2.36.08-.25.25-.34.49-.29l1.23.21c.14.03.23.09.27.18.04.1.05.2.02.31-.44,1.45-1.25,2.6-2.44,3.46-1.19.86-2.62,1.29-4.29,1.29-1.89,0-3.44-.53-4.65-1.58-1.22-1.05-1.95-2.44-2.19-4.16-.11-.66-.18-1.41-.21-2.28s-.04-1.74-.04-2.64c0-2.24.05-3.81.16-4.72.22-1.75.95-3.18,2.19-4.29,1.24-1.11,2.79-1.66,4.65-1.66,2,0,3.62.57,4.88,1.72,1.26,1.15,1.97,2.65,2.13,4.51.08.9.12,2.52.12,4.84,0,.27-.14.41-.41.41h-11.4c-.11,0-.16.05-.16.16,0,1.67.03,2.8.08,3.4.14,1.31.64,2.36,1.52,3.16s2,1.19,3.36,1.19c1.12,0,2.1-.29,2.93-.88ZM263.01,414.46c-.86.81-1.36,1.85-1.5,3.14-.06.6-.08,1.67-.08,3.2,0,.11.05.16.16.16h9.47c.11,0,.16-.05.16-.16,0-1.23-.04-2.3-.12-3.2-.14-1.29-.64-2.33-1.52-3.14-.88-.81-1.97-1.21-3.28-1.21s-2.44.4-3.3,1.21Z"/>
    <path class="cls-1" d="M288.08,411.94c.19.08.26.25.21.49l-.37,1.39c-.08.27-.26.36-.53.25-.44-.19-.89-.29-1.35-.29l-.45.04c-1.31.03-2.39.59-3.24,1.68-.85,1.09-1.27,2.45-1.27,4.06v12.34c0,.27-.14.41-.41.41h-1.35c-.27,0-.41-.14-.41-.41v-19.85c0-.27.14-.41.41-.41h1.35c.27,0,.41.14.41.41v2.75c0,.08.03.12.08.12s.09-.04.12-.12c.46-1.04,1.1-1.85,1.91-2.44.81-.59,1.74-.88,2.81-.88.85,0,1.54.15,2.09.45Z"/>
    <path class="cls-1" d="M303.58,411.65h1.35c.27,0,.41.14.41.41v19.85c0,.27-.14.41-.41.41h-1.35c-.27,0-.41-.14-.41-.41v-1.76c0-.08-.02-.12-.06-.12s-.09.03-.14.08c-.49.82-1.16,1.44-2.01,1.87-.85.42-1.83.64-2.95.64-1.86,0-3.36-.55-4.49-1.66-1.13-1.11-1.7-2.69-1.7-4.74v-14.15c0-.27.14-.41.41-.41h1.35c.27,0,.41.14.41.41v13.61c0,1.59.4,2.82,1.19,3.69s1.89,1.31,3.28,1.31,2.6-.46,3.45-1.39c.85-.93,1.27-2.19,1.27-3.77v-13.45c0-.27.14-.41.41-.41Z"/>
    <path class="cls-1" d="M312.5,431.03c-1.24-1-1.87-2.26-1.87-3.79v-.37c0-.27.14-.41.41-.41h1.31c.27,0,.41.14.41.41v.33c0,.98.42,1.83,1.27,2.52.85.7,1.94,1.04,3.28,1.04s2.41-.35,3.22-1.04c.81-.7,1.21-1.59,1.21-2.69,0-.79-.22-1.43-.66-1.93-.44-.49-.97-.89-1.6-1.19-.63-.3-1.52-.66-2.67-1.07-1.26-.44-2.3-.86-3.14-1.27-.83-.41-1.53-.99-2.09-1.74-.56-.75-.84-1.7-.84-2.85,0-1.69.59-3.03,1.78-4.02s2.75-1.48,4.7-1.48,3.55.51,4.74,1.54c1.19,1.03,1.78,2.33,1.78,3.92v.12c0,.27-.14.41-.41.41h-1.23c-.27,0-.41-.14-.41-.41v-.16c0-1.04-.42-1.9-1.25-2.58-.83-.68-1.92-1.03-3.26-1.03s-2.36.33-3.14.98c-.78.66-1.17,1.52-1.17,2.58,0,.74.21,1.35.62,1.85.41.49.92.89,1.54,1.19.62.3,1.47.64,2.56,1.03,1.34.46,2.42.9,3.26,1.31.83.41,1.55,1,2.15,1.76.6.77.9,1.74.9,2.91,0,1.7-.59,3.06-1.78,4.08-1.19,1.03-2.78,1.54-4.78,1.54s-3.62-.5-4.86-1.5Z"/>
    <path class="cls-1" d="M338.23,430.64c-1.48-1.34-2.21-3.1-2.21-5.29v-1.11c0-.27.14-.41.41-.41h1.27c.27,0,.41.14.41.41v.98c0,1.64.55,2.97,1.66,3.98,1.11,1.01,2.59,1.52,4.45,1.52s3.18-.47,4.2-1.41,1.54-2.21,1.54-3.79c0-1.01-.23-1.89-.7-2.64s-1.14-1.44-2.03-2.07-2.15-1.38-3.79-2.25c-1.75-.96-3.09-1.77-4.02-2.44-.93-.67-1.68-1.48-2.26-2.42s-.86-2.11-.86-3.51c0-2.16.68-3.85,2.03-5.06,1.35-1.22,3.18-1.82,5.47-1.82,2.49,0,4.46.68,5.91,2.03,1.45,1.35,2.17,3.15,2.17,5.39v.98c0,.27-.14.41-.41.41h-1.35c-.27,0-.41-.14-.41-.41v-.9c0-1.7-.53-3.05-1.6-4.06-1.07-1.01-2.52-1.52-4.35-1.52-1.67,0-2.97.43-3.92,1.29-.94.86-1.41,2.08-1.41,3.67,0,1.01.21,1.86.64,2.54.42.68,1.04,1.3,1.84,1.85.81.55,2.04,1.27,3.71,2.17,1.83,1.01,3.26,1.89,4.29,2.62,1.03.74,1.82,1.58,2.38,2.52s.84,2.08.84,3.42c0,2.21-.72,3.99-2.15,5.33-1.44,1.34-3.37,2.01-5.8,2.01s-4.47-.67-5.95-2.01Z"/>
    <path class="cls-1" d="M356.07,440.11v-1.07c0-.27.14-.41.41-.41h.08c.93-.03,1.65-.2,2.17-.51.52-.31.96-.9,1.33-1.74.37-.85.79-2.16,1.25-3.94.03-.03.03-.11,0-.25l-6.15-20.09-.04-.12c0-.22.14-.33.41-.33h1.43c.22,0,.37.11.45.33l4.92,17.26c.03.05.06.08.1.08s.08-.03.1-.08l4.88-17.26c.05-.22.21-.33.45-.33h1.44c.14,0,.24.04.31.12.07.08.09.19.06.33l-6.81,22.31c-.55,1.78-1.07,3.09-1.56,3.94s-1.09,1.42-1.78,1.72c-.7.3-1.67.45-2.93.45h-.25c-.19,0-.29-.14-.29-.41Z"/>
    <path class="cls-1" d="M373.97,431.03c-1.24-1-1.87-2.26-1.87-3.79v-.37c0-.27.14-.41.41-.41h1.31c.27,0,.41.14.41.41v.33c0,.98.42,1.83,1.27,2.52.85.7,1.94,1.04,3.28,1.04s2.41-.35,3.22-1.04c.81-.7,1.21-1.59,1.21-2.69,0-.79-.22-1.43-.66-1.93-.44-.49-.97-.89-1.6-1.19-.63-.3-1.52-.66-2.67-1.07-1.26-.44-2.3-.86-3.14-1.27-.83-.41-1.53-.99-2.09-1.74-.56-.75-.84-1.7-.84-2.85,0-1.69.59-3.03,1.78-4.02s2.75-1.48,4.7-1.48,3.55.51,4.74,1.54c1.19,1.03,1.78,2.33,1.78,3.92v.12c0,.27-.14.41-.41.41h-1.23c-.27,0-.41-.14-.41-.41v-.16c0-1.04-.42-1.9-1.25-2.58-.83-.68-1.92-1.03-3.26-1.03s-2.36.33-3.14.98c-.78.66-1.17,1.52-1.17,2.58,0,.74.21,1.35.62,1.85.41.49.92.89,1.54,1.19.62.3,1.47.64,2.56,1.03,1.34.46,2.42.9,3.26,1.31.83.41,1.55,1,2.15,1.76.6.77.9,1.74.9,2.91,0,1.7-.59,3.06-1.78,4.08-1.19,1.03-2.78,1.54-4.78,1.54s-3.62-.5-4.86-1.5Z"/>
    <path class="cls-1" d="M397.6,413.41h-4.06c-.11,0-.16.05-.16.16v13.12c0,1.39.27,2.36.82,2.89s1.42.8,2.62.8h.7c.27,0,.41.14.41.41v1.11c0,.27-.14.41-.41.41h-1.07c-1.72,0-3.02-.36-3.9-1.09-.88-.72-1.31-2.06-1.31-4v-13.65c0-.11-.06-.16-.16-.16h-2.09c-.27,0-.41-.14-.41-.41v-.94c0-.27.14-.41.41-.41h2.09c.11,0,.16-.05.16-.16v-4.63c0-.27.14-.41.41-.41h1.31c.27,0,.41.14.41.41v4.63c0,.11.05.16.16.16h4.06c.27,0,.41.14.41.41v.94c0,.27-.14.41-.41.41Z"/>
    <path class="cls-1" d="M412.22,429.84c.83-.59,1.41-1.37,1.74-2.36.08-.25.25-.34.49-.29l1.23.21c.14.03.23.09.27.18.04.1.05.2.02.31-.44,1.45-1.25,2.6-2.44,3.46-1.19.86-2.62,1.29-4.29,1.29-1.89,0-3.44-.53-4.65-1.58-1.22-1.05-1.95-2.44-2.19-4.16-.11-.66-.18-1.41-.21-2.28s-.04-1.74-.04-2.64c0-2.24.05-3.81.16-4.72.22-1.75.95-3.18,2.19-4.29,1.24-1.11,2.79-1.66,4.65-1.66,2,0,3.62.57,4.88,1.72,1.26,1.15,1.97,2.65,2.13,4.51.08.9.12,2.52.12,4.84,0,.27-.14.41-.41.41h-11.4c-.11,0-.16.05-.16.16,0,1.67.03,2.8.08,3.4.14,1.31.64,2.36,1.52,3.16s2,1.19,3.36,1.19c1.12,0,2.1-.29,2.93-.88ZM405.91,414.46c-.86.81-1.36,1.85-1.5,3.14-.06.6-.08,1.67-.08,3.2,0,.11.05.16.16.16h9.47c.11,0,.16-.05.16-.16,0-1.23-.04-2.3-.12-3.2-.14-1.29-.64-2.33-1.52-3.14-.88-.81-1.97-1.21-3.28-1.21s-2.44.4-3.3,1.21Z"/>
    <path class="cls-1" d="M444.29,413.17c1.05,1.2,1.58,2.86,1.58,4.96v13.78c0,.27-.14.41-.41.41h-1.31c-.27,0-.41-.14-.41-.41v-13.49c0-1.58-.4-2.84-1.19-3.75-.79-.92-1.85-1.37-3.16-1.37s-2.46.45-3.28,1.35c-.82.9-1.23,2.13-1.23,3.69v13.57c0,.27-.14.41-.41.41h-1.31c-.27,0-.41-.14-.41-.41v-13.49c0-1.58-.4-2.84-1.19-3.75-.79-.92-1.83-1.37-3.12-1.37-1.37,0-2.46.45-3.28,1.35-.82.9-1.23,2.13-1.23,3.69v13.57c0,.27-.14.41-.41.41h-1.31c-.27,0-.41-.14-.41-.41v-19.85c0-.27.14-.41.41-.41h1.31c.27,0,.41.14.41.41v1.72c0,.08.03.13.08.14.05.01.09-.02.12-.1.55-.82,1.25-1.44,2.11-1.85.86-.41,1.81-.61,2.85-.61,1.23,0,2.29.29,3.18.88.89.59,1.55,1.42,1.99,2.48.05.14.12.12.21-.04.52-1.12,1.27-1.95,2.25-2.5.98-.55,2.09-.82,3.32-.82,1.78,0,3.19.6,4.24,1.8Z"/>
    <path class="cls-1" d="M452.78,431.03c-1.24-1-1.87-2.26-1.87-3.79v-.37c0-.27.14-.41.41-.41h1.31c.27,0,.41.14.41.41v.33c0,.98.42,1.83,1.27,2.52.85.7,1.94,1.04,3.28,1.04s2.41-.35,3.22-1.04c.81-.7,1.21-1.59,1.21-2.69,0-.79-.22-1.43-.66-1.93-.44-.49-.97-.89-1.6-1.19-.63-.3-1.52-.66-2.67-1.07-1.26-.44-2.3-.86-3.14-1.27-.83-.41-1.53-.99-2.09-1.74-.56-.75-.84-1.7-.84-2.85,0-1.69.59-3.03,1.78-4.02s2.75-1.48,4.7-1.48,3.55.51,4.74,1.54c1.19,1.03,1.78,2.33,1.78,3.92v.12c0,.27-.14.41-.41.41h-1.23c-.27,0-.41-.14-.41-.41v-.16c0-1.04-.42-1.9-1.25-2.58-.83-.68-1.92-1.03-3.26-1.03s-2.36.33-3.14.98c-.78.66-1.17,1.52-1.17,2.58,0,.74.21,1.35.62,1.85.41.49.92.89,1.54,1.19.62.3,1.47.64,2.56,1.03,1.34.46,2.42.9,3.26,1.31.83.41,1.55,1,2.15,1.76.6.77.9,1.74.9,2.91,0,1.7-.59,3.06-1.78,4.08-1.19,1.03-2.78,1.54-4.78,1.54s-3.62-.5-4.86-1.5Z"/>
  </g>
</svg>